dataset
version=1
nRows=28
nColumns=39
inDegrees=no
endheader
time	sternoclavicular_r2	sternoclavicular_r3	unrotscap_r3	unrotscap_r2	acromioclavicular_r2	acromioclavicular_r3	acromioclavicular_r1	unrothum_r1	unrothum_r3	unrothum_r2	elv_angle	shoulder_elv	shoulder1_r2	shoulder_rot	elbow_flexion	pro_sup	deviation	flexion	cmc_abduction	cmc_flexion	mp_flexion	ip_flexion	mcp2_flexion	mcp2_abduction	pm2_flexion	md2_flexion	mcp3_flexion	mcp3_abduction	pm3_flexion	md3_flexion	mcp4_flexion	mcp4_abduction	pm4_flexion	md4_flexion	mcp5_flexion	mcp5_abduction	pm5_flexion	md5_flexion
2.470000	-0.033762	-0.352360	0.175449	0.181689	0.160227	0.112361	-0.143000	-0.050521	0.057376	0.207185	0.191514	0.027437	0.146525	0.146525	1.521368	1.276488	0.000000	0.000000	0.000000	0.000000	0.000000	0.000000	0.000000	0.000000	0.000000	0.000000	0.000000	0.000000	0.000000	0.000000	0.000000	0.000000	0.000000	0.000000	0.000000	0.000000	0.000000	0.000000
2.475000	-0.033752	-0.352080	0.175093	0.181765	0.160336	0.112229	-0.142668	-0.050614	0.057561	0.207329	0.191682	0.027437	0.146525	0.146525	1.522418	1.276468	0.000000	0.000000	0.000000	0.000000	0.000000	0.000000	0.000000	0.000000	0.000000	0.000000	0.000000	0.000000	0.000000	0.000000	0.000000	0.000000	0.000000	0.000000	0.000000	0.000000	0.000000	0.000000
2.480000	-0.033742	-0.351802	0.174740	0.181843	0.160448	0.112093	-0.142342	-0.050708	0.057741	0.207476	0.191852	0.027437	0.146525	0.146525	1.523421	1.276450	0.000000	0.000000	0.000000	0.000000	0.000000	0.000000	0.000000	0.000000	0.000000	0.000000	0.000000	0.000000	0.000000	0.000000	0.000000	0.000000	0.000000	0.000000	0.000000	0.000000	0.000000	0.000000
2.485000	-0.033733	-0.351525	0.174389	0.181923	0.160563	0.111953	-0.142020	-0.050804	0.057916	0.207628	0.192024	0.027437	0.146525	0.146525	1.524375	1.276435	0.000000	0.000000	0.000000	0.000000	0.000000	0.000000	0.000000	0.000000	0.000000	0.000000	0.000000	0.000000	0.000000	0.000000	0.000000	0.000000	0.000000	0.000000	0.000000	0.000000	0.000000	0.000000
2.490000	-0.033724	-0.351251	0.174042	0.182004	0.160680	0.111808	-0.141704	-0.050902	0.058086	0.207784	0.192198	0.027437	0.146525	0.146525	1.525281	1.276421	0.000000	0.000000	0.000000	0.000000	0.000000	0.000000	0.000000	0.000000	0.000000	0.000000	0.000000	0.000000	0.000000	0.000000	0.000000	0.000000	0.000000	0.000000	0.000000	0.000000	0.000000	0.000000
2.495000	-0.033716	-0.350979	0.173698	0.182088	0.160800	0.111659	-0.141394	-0.051002	0.058251	0.207943	0.192374	0.027437	0.146525	0.146525	1.526139	1.276410	0.000000	0.000000	0.000000	0.000000	0.000000	0.000000	0.000000	0.000000	0.000000	0.000000	0.000000	0.000000	0.000000	0.000000	0.000000	0.000000	0.000000	0.000000	0.000000	0.000000	0.000000	0.000000
2.500000	-0.033709	-0.350710	0.173358	0.182173	0.160922	0.111505	-0.141090	-0.051104	0.058410	0.208107	0.192551	0.027437	0.146525	0.146525	1.526947	1.276401	0.000000	0.000000	0.000000	0.000000	0.000000	0.000000	0.000000	0.000000	0.000000	0.000000	0.000000	0.000000	0.000000	0.000000	0.000000	0.000000	0.000000	0.000000	0.000000	0.000000	0.000000	0.000000
2.505000	-0.033702	-0.350443	0.173022	0.182259	0.161047	0.111346	-0.140792	-0.051209	0.058563	0.208273	0.192729	0.027437	0.146525	0.146525	1.527705	1.276394	0.000000	0.000000	0.000000	0.000000	0.000000	0.000000	0.000000	0.000000	0.000000	0.000000	0.000000	0.000000	0.000000	0.000000	0.000000	0.000000	0.000000	0.000000	0.000000	0.000000	0.000000	0.000000
2.510000	-0.033695	-0.350179	0.172691	0.182347	0.161174	0.111184	-0.140501	-0.051315	0.058710	0.208444	0.192909	0.027437	0.146525	0.146525	1.528414	1.276389	0.000000	0.000000	0.000000	0.000000	0.000000	0.000000	0.000000	0.000000	0.000000	0.000000	0.000000	0.000000	0.000000	0.000000	0.000000	0.000000	0.000000	0.000000	0.000000	0.000000	0.000000	0.000000
2.515000	-0.033688	-0.349918	0.172364	0.182436	0.161302	0.111017	-0.140218	-0.051424	0.058851	0.208617	0.193089	0.027437	0.146525	0.146525	1.529073	1.276387	0.000000	0.000000	0.000000	0.000000	0.000000	0.000000	0.000000	0.000000	0.000000	0.000000	0.000000	0.000000	0.000000	0.000000	0.000000	0.000000	0.000000	0.000000	0.000000	0.000000	0.000000	0.000000
2.520000	-0.033683	-0.349660	0.172042	0.182526	0.161433	0.110845	-0.139942	-0.051536	0.058985	0.208793	0.193269	0.027437	0.146525	0.146525	1.529683	1.276387	0.000000	0.000000	0.000000	0.000000	0.000000	0.000000	0.000000	0.000000	0.000000	0.000000	0.000000	0.000000	0.000000	0.000000	0.000000	0.000000	0.000000	0.000000	0.000000	0.000000	0.000000	0.000000
2.525000	-0.033677	-0.349406	0.171726	0.182617	0.161565	0.110670	-0.139673	-0.051650	0.059113	0.208973	0.193450	0.027437	0.146525	0.146525	1.530242	1.276389	0.000000	0.000000	0.000000	0.000000	0.000000	0.000000	0.000000	0.000000	0.000000	0.000000	0.000000	0.000000	0.000000	0.000000	0.000000	0.000000	0.000000	0.000000	0.000000	0.000000	0.000000	0.000000
2.530000	-0.033672	-0.349155	0.171415	0.182708	0.161699	0.110490	-0.139413	-0.051768	0.059235	0.209155	0.193631	0.027437	0.146525	0.146525	1.530753	1.276394	0.000000	0.000000	0.000000	0.000000	0.000000	0.000000	0.000000	0.000000	0.000000	0.000000	0.000000	0.000000	0.000000	0.000000	0.000000	0.000000	0.000000	0.000000	0.000000	0.000000	0.000000	0.000000
2.535000	-0.033667	-0.348907	0.171110	0.182800	0.161833	0.110306	-0.139160	-0.051888	0.059349	0.209339	0.193812	0.027437	0.146525	0.146525	1.531215	1.276400	0.000000	0.000000	0.000000	0.000000	0.000000	0.000000	0.000000	0.000000	0.000000	0.000000	0.000000	0.000000	0.000000	0.000000	0.000000	0.000000	0.000000	0.000000	0.000000	0.000000	0.000000	0.000000
2.540000	-0.033662	-0.348664	0.170811	0.182892	0.161969	0.110118	-0.138917	-0.052011	0.059457	0.209526	0.193993	0.027437	0.146525	0.146525	1.531628	1.276409	0.000000	0.000000	0.000000	0.000000	0.000000	0.000000	0.000000	0.000000	0.000000	0.000000	0.000000	0.000000	0.000000	0.000000	0.000000	0.000000	0.000000	0.000000	0.000000	0.000000	0.000000	0.000000
2.545000	-0.033658	-0.348425	0.170518	0.182984	0.162105	0.109927	-0.138681	-0.052137	0.059558	0.209715	0.194173	0.027437	0.146525	0.146525	1.531993	1.276420	0.000000	0.000000	0.000000	0.000000	0.000000	0.000000	0.000000	0.000000	0.000000	0.000000	0.000000	0.000000	0.000000	0.000000	0.000000	0.000000	0.000000	0.000000	0.000000	0.000000	0.000000	0.000000
2.550000	-0.033654	-0.348189	0.170232	0.183077	0.162242	0.109731	-0.138455	-0.052266	0.059652	0.209905	0.194352	0.027437	0.146525	0.146525	1.532310	1.276434	0.000000	0.000000	0.000000	0.000000	0.000000	0.000000	0.000000	0.000000	0.000000	0.000000	0.000000	0.000000	0.000000	0.000000	0.000000	0.000000	0.000000	0.000000	0.000000	0.000000	0.000000	0.000000
2.555000	-0.033650	-0.347958	0.169953	0.183169	0.162380	0.109532	-0.138238	-0.052398	0.059740	0.210098	0.194530	0.027437	0.146525	0.146525	1.532581	1.276449	0.000000	0.000000	0.000000	0.000000	0.000000	0.000000	0.000000	0.000000	0.000000	0.000000	0.000000	0.000000	0.000000	0.000000	0.000000	0.000000	0.000000	0.000000	0.000000	0.000000	0.000000	0.000000
2.560000	-0.033646	-0.347731	0.169680	0.183261	0.162517	0.109330	-0.138029	-0.052533	0.059820	0.210291	0.194707	0.027437	0.146525	0.146525	1.532807	1.276466	0.000000	0.000000	0.000000	0.000000	0.000000	0.000000	0.000000	0.000000	0.000000	0.000000	0.000000	0.000000	0.000000	0.000000	0.000000	0.000000	0.000000	0.000000	0.000000	0.000000	0.000000	0.000000
2.565000	-0.033642	-0.347509	0.169415	0.183352	0.162655	0.109125	-0.137830	-0.052672	0.059894	0.210486	0.194882	0.027437	0.146525	0.146525	1.532987	1.276486	0.000000	0.000000	0.000000	0.000000	0.000000	0.000000	0.000000	0.000000	0.000000	0.000000	0.000000	0.000000	0.000000	0.000000	0.000000	0.000000	0.000000	0.000000	0.000000	0.000000	0.000000	0.000000
2.570000	-0.033639	-0.347291	0.169157	0.183442	0.162792	0.108917	-0.137640	-0.052814	0.059961	0.210682	0.195055	0.027437	0.146525	0.146525	1.533123	1.276507	0.000000	0.000000	0.000000	0.000000	0.000000	0.000000	0.000000	0.000000	0.000000	0.000000	0.000000	0.000000	0.000000	0.000000	0.000000	0.000000	0.000000	0.000000	0.000000	0.000000	0.000000	0.000000
2.575000	-0.033636	-0.347077	0.168906	0.183531	0.162929	0.108705	-0.137459	-0.052960	0.060021	0.210878	0.195226	0.027437	0.146525	0.146525	1.533217	1.276530	0.000000	0.000000	0.000000	0.000000	0.000000	0.000000	0.000000	0.000000	0.000000	0.000000	0.000000	0.000000	0.000000	0.000000	0.000000	0.000000	0.000000	0.000000	0.000000	0.000000	0.000000	0.000000
2.580000	-0.033633	-0.346868	0.168663	0.183620	0.163064	0.108492	-0.137288	-0.053108	0.060074	0.211074	0.195395	0.027437	0.146525	0.146525	1.533268	1.276555	0.000000	0.000000	0.000000	0.000000	0.000000	0.000000	0.000000	0.000000	0.000000	0.000000	0.000000	0.000000	0.000000	0.000000	0.000000	0.000000	0.000000	0.000000	0.000000	0.000000	0.000000	0.000000
2.585000	-0.033629	-0.346664	0.168427	0.183707	0.163199	0.108276	-0.137126	-0.053260	0.060121	0.211271	0.195562	0.027437	0.146525	0.146525	1.533280	1.276582	0.000000	0.000000	0.000000	0.000000	0.000000	0.000000	0.000000	0.000000	0.000000	0.000000	0.000000	0.000000	0.000000	0.000000	0.000000	0.000000	0.000000	0.000000	0.000000	0.000000	0.000000	0.000000
2.590000	-0.033626	-0.346464	0.168199	0.183792	0.163333	0.108058	-0.136974	-0.053416	0.060162	0.211467	0.195725	0.027437	0.146525	0.146525	1.533251	1.276611	0.000000	0.000000	0.000000	0.000000	0.000000	0.000000	0.000000	0.000000	0.000000	0.000000	0.000000	0.000000	0.000000	0.000000	0.000000	0.000000	0.000000	0.000000	0.000000	0.000000	0.000000	0.000000
2.595000	-0.033623	-0.346270	0.167979	0.183876	0.163465	0.107838	-0.136830	-0.053574	0.060196	0.211663	0.195886	0.027437	0.146525	0.146525	1.533185	1.276641	0.000000	0.000000	0.000000	0.000000	0.000000	0.000000	0.000000	0.000000	0.000000	0.000000	0.000000	0.000000	0.000000	0.000000	0.000000	0.000000	0.000000	0.000000	0.000000	0.000000	0.000000	0.000000
2.600000	-0.033620	-0.346080	0.167767	0.183958	0.163595	0.107616	-0.136696	-0.053736	0.060224	0.211858	0.196044	0.027437	0.146525	0.146525	1.533083	1.276673	0.000000	0.000000	0.000000	0.000000	0.000000	0.000000	0.000000	0.000000	0.000000	0.000000	0.000000	0.000000	0.000000	0.000000	0.000000	0.000000	0.000000	0.000000	0.000000	0.000000	0.000000	0.000000
2.605000	-0.033617	-0.345894	0.167562	0.184038	0.163724	0.107393	-0.136572	-0.053902	0.060246	0.212053	0.196198	0.027437	0.146525	0.146525	1.532945	1.276707	0.000000	0.000000	0.000000	0.000000	0.000000	0.000000	0.000000	0.000000	0.000000	0.000000	0.000000	0.000000	0.000000	0.000000	0.000000	0.000000	0.000000	0.000000	0.000000	0.000000	0.000000	0.000000
